<svg width="36" height="36" viewBox="0 0 36 36" fill="none" xmlns="http://www.w3.org/2000/svg">
<path d="M18 18C15.525 18 13.4063 17.1188 11.6438 15.3563C9.88125 13.5938 9 11.475 9 9C9 6.525 9.88125 4.40625 11.6438 2.64375C13.4063 0.88125 15.525 0 18 0C20.475 0 22.5938 0.88125 24.3562 2.64375C26.1187 4.40625 27 6.525 27 9C27 11.475 26.1187 13.5938 24.3562 15.3563C22.5938 17.1188 20.475 18 18 18ZM0 36V29.7C0 28.425 0.328125 27.2531 0.984375 26.1844C1.64062 25.1156 2.5125 24.3 3.6 23.7375C5.925 22.575 8.2875 21.7031 10.6875 21.1219C13.0875 20.5406 15.525 20.25 18 20.25C20.475 20.25 22.9125 20.5406 25.3125 21.1219C27.7125 21.7031 30.075 22.575 32.4 23.7375C33.4875 24.3 34.3594 25.1156 35.0156 26.1844C35.6719 27.2531 36 28.425 36 29.7V36H0ZM4.5 31.5H31.5V29.7C31.5 29.2875 31.3969 28.9125 31.1906 28.575C30.9844 28.2375 30.7125 27.975 30.375 27.7875C28.35 26.775 26.3063 26.0156 24.2438 25.5094C22.1813 25.0031 20.1 24.75 18 24.75C15.9 24.75 13.8187 25.0031 11.7562 25.5094C9.69375 26.0156 7.65 26.775 5.625 27.7875C5.2875 27.975 5.01562 28.2375 4.80938 28.575C4.60313 28.9125 4.5 29.2875 4.5 29.7V31.5ZM18 13.5C19.2375 13.5 20.2969 13.0594 21.1781 12.1781C22.0594 11.2969 22.5 10.2375 22.5 9C22.5 7.7625 22.0594 6.70313 21.1781 5.82188C20.2969 4.94063 19.2375 4.5 18 4.5C16.7625 4.5 15.7031 4.94063 14.8219 5.82188C13.9406 6.70313 13.5 7.7625 13.5 9C13.5 10.2375 13.9406 11.2969 14.8219 12.1781C15.7031 13.0594 16.7625 13.5 18 13.5Z" fill="#185EA0" fill-opacity="0.5"/>
</svg>
