<svg width="11" height="8" viewBox="0 0 11 8" fill="none" xmlns="http://www.w3.org/2000/svg">
<path opacity="0.25" d="M2.99457 0.841187L1.01795 3.78424L2.99881 6.72729H9.33162V0.841187H2.99457C2.99881 0.841187 2.99881 0.841187 2.99457 0.841187ZM8.05912 3.15358C8.41118 3.15358 8.69537 3.43528 8.69537 3.78424C8.69537 4.1332 8.41118 4.41489 8.05912 4.41489C7.70706 4.41489 7.42287 4.1332 7.42287 3.78424C7.42287 3.43528 7.70706 3.15358 8.05912 3.15358ZM5.93829 3.15358C6.29034 3.15358 6.57454 3.43528 6.57454 3.78424C6.57454 4.1332 6.29034 4.41489 5.93829 4.41489C5.58623 4.41489 5.30204 4.1332 5.30204 3.78424C5.30204 3.43528 5.58623 3.15358 5.93829 3.15358ZM3.81745 3.15358C4.16951 3.15358 4.4537 3.43528 4.4537 3.78424C4.4537 4.1332 4.16951 4.41489 3.81745 4.41489C3.46539 4.41489 3.1812 4.1332 3.1812 3.78424C3.1812 3.43528 3.46539 3.15358 3.81745 3.15358Z" fill="#185EA0"/>
<path d="M9.33167 0H2.96917C2.67649 0 2.44744 0.147153 2.29474 0.369983L0 3.78392L2.29474 7.19366C2.44744 7.41649 2.70618 7.56784 2.99886 7.56784H9.33167C9.79825 7.56784 10.18 7.18945 10.18 6.72697V0.840871C10.18 0.378392 9.79825 0 9.33167 0ZM9.33167 6.72697H2.99886L1.018 3.78392L2.99462 0.840871H9.33167V6.72697Z" fill="#185EA0"/>
<path d="M3.81749 4.41478C4.16889 4.41478 4.45374 4.13243 4.45374 3.78413C4.45374 3.43583 4.16889 3.15347 3.81749 3.15347C3.4661 3.15347 3.18124 3.43583 3.18124 3.78413C3.18124 4.13243 3.4661 4.41478 3.81749 4.41478Z" fill="#185EA0"/>
<path d="M5.9383 4.41478C6.28969 4.41478 6.57455 4.13243 6.57455 3.78413C6.57455 3.43583 6.28969 3.15347 5.9383 3.15347C5.58691 3.15347 5.30205 3.43583 5.30205 3.78413C5.30205 4.13243 5.58691 4.41478 5.9383 4.41478Z" fill="#185EA0"/>
<path d="M8.05921 4.41478C8.4106 4.41478 8.69546 4.13243 8.69546 3.78413C8.69546 3.43583 8.4106 3.15347 8.05921 3.15347C7.70782 3.15347 7.42296 3.43583 7.42296 3.78413C7.42296 4.13243 7.70782 4.41478 8.05921 4.41478Z" fill="#185EA0"/>
</svg>
