<svg width="29" height="36" viewBox="0 0 29 36" fill="none" xmlns="http://www.w3.org/2000/svg">
<path d="M9.0625 18H19.9375C20.451 18 20.8818 17.8272 21.2298 17.4816C21.5766 17.1372 21.75 16.71 21.75 16.2C21.75 15.69 21.5766 15.2622 21.2298 14.9166C20.8818 14.5722 20.451 14.4 19.9375 14.4H9.0625C8.54896 14.4 8.11879 14.5722 7.772 14.9166C7.424 15.2622 7.25 15.69 7.25 16.2C7.25 16.71 7.424 17.1372 7.772 17.4816C8.11879 17.8272 8.54896 18 9.0625 18ZM9.0625 10.8H19.9375C20.451 10.8 20.8818 10.6278 21.2298 10.2834C21.5766 9.9378 21.75 9.51 21.75 9C21.75 8.49 21.5766 8.0622 21.2298 7.7166C20.8818 7.3722 20.451 7.2 19.9375 7.2H9.0625C8.54896 7.2 8.11879 7.3722 7.772 7.7166C7.424 8.0622 7.25 8.49 7.25 9C7.25 9.51 7.424 9.9378 7.772 10.2834C8.11879 10.6278 8.54896 10.8 9.0625 10.8ZM28.9094 33.255L21.5687 23.76C21.0552 23.07 20.4208 22.5372 19.6656 22.1616C18.9104 21.7872 18.0948 21.6 17.2188 21.6H0V3.6C0 2.61 0.35525 1.7622 1.06575 1.0566C1.77504 0.3522 2.62812 0 3.625 0H25.375C26.3719 0 27.2256 0.3522 27.9361 1.0566C28.6454 1.7622 29 2.61 29 3.6V32.4C29 32.55 28.9928 32.6928 28.9783 32.8284C28.9625 32.9628 28.9396 33.105 28.9094 33.255ZM3.625 36C2.62812 36 1.77504 35.6478 1.06575 34.9434C0.35525 34.2378 0 33.39 0 32.4V25.2H17.2188C17.5208 25.2 17.8006 25.2678 18.0579 25.4034C18.3141 25.5378 18.5328 25.725 18.7141 25.965L26.3266 35.865C26.1755 35.925 26.0172 35.9628 25.8517 35.9784C25.6849 35.9928 25.526 36 25.375 36H3.625Z" fill="#185EA0" fill-opacity="0.5"/>
</svg>
