<svg width="21" height="32" viewBox="0 0 21 32" fill="none" xmlns="http://www.w3.org/2000/svg">
<path d="M3.68164 1.22266C4.26572 0.75704 5.11602 0.790223 5.66211 1.32227L19.6143 14.9258L19.7207 15.041C20.1828 15.5952 20.1828 16.4048 19.7207 16.959L19.6143 17.0742L5.66211 30.6777C5.11602 31.2098 4.26572 31.243 3.68164 30.7773L3.56836 30.6777L1.38477 28.5479C0.781478 27.9596 0.781108 26.9903 1.38379 26.4014L11.6621 16.3574L11.7285 16.2783C11.8411 16.1106 11.8411 15.8894 11.7285 15.7217L11.6621 15.6426L1.38379 5.59863C0.781108 5.00974 0.781477 4.04041 1.38477 3.45215L3.56836 1.32227L3.68164 1.22266Z" fill="#FF0000" stroke="black"/>
</svg>
