<svg width="12" height="15" viewBox="0 0 12 15" fill="none" xmlns="http://www.w3.org/2000/svg">
<path opacity="0.25" d="M5.84132 3.54157C4.05881 3.54157 2.97784 4.97491 2.97784 6.73465V10.9921H8.70479V6.73465C8.70479 4.97491 7.62383 3.54157 5.84132 3.54157Z" fill="#185EA0"/>
<path d="M5.8413 14.5396C6.62876 14.5396 7.27304 13.901 7.27304 13.1205H4.40956C4.40956 13.901 5.05384 14.5396 5.8413 14.5396ZM10.1365 10.2822V6.73435C10.1365 4.55596 8.96965 2.73236 6.9151 2.24985V1.76735C6.9151 1.1784 6.43547 0.702988 5.8413 0.702988C5.24713 0.702988 4.7675 1.1784 4.7675 1.76735V2.24985C2.72011 2.73236 1.54609 4.54887 1.54609 6.73435V10.2822L0.114349 11.7014V12.4109H11.5683V11.7014L10.1365 10.2822ZM8.70477 10.9918H2.97782V6.73435C2.97782 4.97461 4.05879 3.54128 5.8413 3.54128C7.62381 3.54128 8.70477 4.97461 8.70477 6.73435V10.9918Z" fill="#185EA0"/>
</svg>
