<svg width="12" height="12" viewBox="0 0 12 12" fill="none" xmlns="http://www.w3.org/2000/svg">
<path d="M5.83333 0C2.61858 0 0 2.61858 0 5.83333C0 9.04809 2.61858 11.6667 5.83333 11.6667C9.04809 11.6667 11.6667 9.04809 11.6667 5.83333C11.6667 2.61858 9.04809 0 5.83333 0ZM5.83333 1.16667C8.41757 1.16667 10.5 3.2491 10.5 5.83333C10.5 8.41757 8.41757 10.5 5.83333 10.5C3.2491 10.5 1.16667 8.41757 1.16667 5.83333C1.16667 3.2491 3.2491 1.16667 5.83333 1.16667ZM8.33757 3.6709L4.66667 7.3418L3.3291 6.00423L2.50423 6.8291L4.66667 8.99154L9.16244 4.49577L8.33757 3.6709Z" fill="#3F9633"/>
</svg>
