<svg width="13" height="14" viewBox="0 0 13 14" fill="none" xmlns="http://www.w3.org/2000/svg">
<path fill-rule="evenodd" clip-rule="evenodd" d="M5.8653 0C6.14368 0.000245073 6.41058 0.111031 6.6073 0.308L9.4927 3.192C9.59027 3.28963 9.66763 3.40554 9.72036 3.5331C9.77309 3.66067 9.80015 3.79737 9.8 3.9354V7C8.68609 7 7.6178 7.4425 6.83015 8.23015C6.0425 9.0178 5.6 10.0861 5.6 11.2V14H1.05C0.771523 14 0.504451 13.8894 0.307538 13.6925C0.110625 13.4955 0 13.2285 0 12.95V1.05C0 0.771523 0.110625 0.504451 0.307538 0.307538C0.504451 0.110625 0.771523 0 1.05 0L5.8653 0ZM2.1 3.5H7.7V4.9H2.1V3.5ZM5.6 6.3H2.1V7.7H5.6V6.3ZM2.1 9.1H4.2V10.5H2.1V9.1ZM12.3949 10.7051C12.2637 10.5738 12.0856 10.5 11.9 10.5H10.5V9.1C10.5 8.91435 10.4263 8.7363 10.295 8.60502C10.1637 8.47375 9.98565 8.4 9.8 8.4C9.61435 8.4 9.4363 8.47375 9.30503 8.60502C9.17375 8.7363 9.1 8.91435 9.1 9.1V10.5H7.7C7.51435 10.5 7.3363 10.5737 7.20503 10.705C7.07375 10.8363 7 11.0143 7 11.2C7 11.3857 7.07375 11.5637 7.20503 11.695C7.3363 11.8262 7.51435 11.9 7.7 11.9H9.1V13.3C9.1 13.4857 9.17375 13.6637 9.30503 13.795C9.4363 13.9262 9.61435 14 9.8 14C9.98565 14 10.1637 13.9262 10.295 13.795C10.4263 13.6637 10.5 13.4857 10.5 13.3V11.9H11.9C12.0384 11.9 12.1737 11.8589 12.2888 11.782C12.4039 11.7051 12.4936 11.5957 12.5466 11.4679C12.5995 11.34 12.6134 11.1992 12.5864 11.0635C12.5594 10.9277 12.4928 10.803 12.3949 10.7051Z" fill="#3F9633"/>
</svg>
