<svg width="14" height="14" viewBox="0 0 14 14" fill="none" xmlns="http://www.w3.org/2000/svg">
<path d="M7 8.75003C7.46414 8.75003 7.90927 8.56565 8.23746 8.23746C8.56565 7.90927 8.75003 7.46414 8.75003 7C8.75003 6.84425 8.72378 6.69549 8.68528 6.55199L13.7438 1.49352C13.9078 1.32945 14 1.10692 14 0.874884C14 0.642851 13.9078 0.42032 13.7438 0.256248C13.5797 0.0921751 13.3571 0 13.1251 0C12.8931 0 12.6706 0.0921751 12.5065 0.256248L10.2227 2.54004C9.23037 2.0141 8.12306 1.74261 7 1.7499C2.08941 1.7499 0.142496 6.47412 0.0619942 6.67449C-0.020231 6.88371 -0.020231 7.11629 0.0619942 7.32551C0.109245 7.44188 0.792633 9.08516 2.32129 10.4414L0.256248 12.5065C0.175007 12.5877 0.110564 12.6842 0.0665968 12.7903C0.0226297 12.8965 8.56009e-10 13.0102 0 13.1251C-8.56008e-10 13.24 0.0226297 13.3538 0.0665968 13.4599C0.110564 13.5661 0.175007 13.6625 0.256248 13.7438C0.337488 13.825 0.433935 13.8894 0.540081 13.9334C0.646227 13.9774 0.759993 14 0.874884 14C0.989776 14 1.10354 13.9774 1.20969 13.9334C1.31583 13.8894 1.41228 13.825 1.49352 13.7438L6.55199 8.68528C6.69549 8.72291 6.84425 8.75003 7 8.75003ZM3.49993 7C3.49993 6.07172 3.86869 5.18147 4.52508 4.52508C5.18147 3.86869 6.07172 3.49993 7 3.49993C7.64926 3.49993 8.25302 3.68194 8.77191 3.99082L7.44801 5.31472C7.3021 5.27387 7.15151 5.2521 7 5.24997C6.53586 5.24997 6.09074 5.43435 5.76254 5.76254C5.43435 6.09074 5.24997 6.53586 5.24997 7C5.24997 7.15575 5.27709 7.30363 5.31472 7.44713L3.99082 8.77191C3.67057 8.23627 3.50097 7.62407 3.49993 7ZM12.377 4.24895L10.4064 6.21949C10.4624 6.47149 10.4992 6.73137 10.4992 7.00088C10.4992 7.92915 10.1304 8.81941 9.47405 9.4758C8.81766 10.1322 7.9274 10.5009 6.99913 10.5009C6.73137 10.5009 6.47237 10.4642 6.22036 10.4064L4.74858 11.8765C5.47318 12.1248 6.23401 12.2511 7 12.2501C11.9115 12.2501 13.8575 7.52589 13.9371 7.32463C14.02 7.11615 14.02 6.88385 13.9371 6.67537C13.8986 6.57824 13.4156 5.41797 12.3761 4.24895H12.377Z" fill="black" fill-opacity="0.5"/>
</svg>
