<svg width="14" height="14" viewBox="0 0 14 14" fill="none" xmlns="http://www.w3.org/2000/svg">
<path d="M3.88889 0C1.74456 0 0 1.74456 0 3.88889V10.1111C0 12.2554 1.74456 14 3.88889 14H10.1111C12.2554 14 14 12.2554 14 10.1111V3.88889C14 1.74456 12.2554 0 10.1111 0H3.88889ZM3.88889 1.55556H10.1111C11.3976 1.55556 12.4444 2.60244 12.4444 3.88889V10.1111C12.4444 11.3976 11.3976 12.4444 10.1111 12.4444H3.88889C2.60244 12.4444 1.55556 11.3976 1.55556 10.1111V3.88889C1.55556 2.60244 2.60244 1.55556 3.88889 1.55556ZM10.8889 2.33333C10.6826 2.33333 10.4848 2.41528 10.3389 2.56114C10.1931 2.707 10.1111 2.90483 10.1111 3.11111C10.1111 3.31739 10.1931 3.51522 10.3389 3.66108C10.4848 3.80694 10.6826 3.88889 10.8889 3.88889C11.0952 3.88889 11.293 3.80694 11.4389 3.66108C11.5847 3.51522 11.6667 3.31739 11.6667 3.11111C11.6667 2.90483 11.5847 2.707 11.4389 2.56114C11.293 2.41528 11.0952 2.33333 10.8889 2.33333ZM7 3.11111C4.85567 3.11111 3.11111 4.85567 3.11111 7C3.11111 9.14433 4.85567 10.8889 7 10.8889C9.14433 10.8889 10.8889 9.14433 10.8889 7C10.8889 4.85567 9.14433 3.11111 7 3.11111ZM7 4.66667C8.28644 4.66667 9.33333 5.71356 9.33333 7C9.33333 8.28644 8.28644 9.33333 7 9.33333C5.71356 9.33333 4.66667 8.28644 4.66667 7C4.66667 5.71356 5.71356 4.66667 7 4.66667Z" fill="black"/>
</svg>
