<svg width="21" height="32" viewBox="0 0 21 32" fill="none" xmlns="http://www.w3.org/2000/svg">
<path d="M17.3184 1.22266C16.7343 0.75704 15.884 0.790223 15.3379 1.32227L1.38574 14.9258L1.2793 15.041C0.817171 15.5952 0.81717 16.4048 1.2793 16.959L1.38574 17.0742L15.3379 30.6777C15.884 31.2098 16.7343 31.243 17.3184 30.7773L17.4316 30.6777L19.6152 28.5479C20.2185 27.9596 20.2189 26.9903 19.6162 26.4014L9.33789 16.3574L9.27148 16.2783C9.15894 16.1106 9.15894 15.8894 9.27148 15.7217L9.33789 15.6426L19.6162 5.59863C20.2189 5.00974 20.2185 4.04041 19.6152 3.45215L17.4316 1.32227L17.3184 1.22266Z" fill="#3F9633" stroke="black"/>
</svg>
