<svg width="14" height="9" viewBox="0 0 14 9" fill="none" xmlns="http://www.w3.org/2000/svg">
<path d="M7 1.2C9.41182 1.2 11.5627 2.478 12.6127 4.5C11.5627 6.522 9.41818 7.8 7 7.8C4.58182 7.8 2.43727 6.522 1.38727 4.5C2.43727 2.478 4.58818 1.2 7 1.2ZM7 0C3.81818 0 1.10091 1.866 0 4.5C1.10091 7.134 3.81818 9 7 9C10.1818 9 12.8991 7.134 14 4.5C12.8991 1.866 10.1818 0 7 0ZM7 3C7.87818 3 8.59091 3.672 8.59091 4.5C8.59091 5.328 7.87818 6 7 6C6.12182 6 5.40909 5.328 5.40909 4.5C5.40909 3.672 6.12182 3 7 3ZM7 1.8C5.42182 1.8 4.13636 3.012 4.13636 4.5C4.13636 5.988 5.42182 7.2 7 7.2C8.57818 7.2 9.86364 5.988 9.86364 4.5C9.86364 3.012 8.57818 1.8 7 1.8Z" fill="#185EA0"/>
</svg>
