<svg width="42" height="42" viewBox="0 0 42 42" fill="none" xmlns="http://www.w3.org/2000/svg">
<circle cx="21" cy="21" r="20" fill="white" stroke="#185EA0" stroke-opacity="0.5"/>
<path d="M33.6829 10.9736C33.6829 10.4502 33.475 9.94816 33.1049 9.57805C32.7348 9.20793 32.2328 9 31.7093 9H11.9736C11.4502 9 10.9482 9.20793 10.578 9.57805C10.2079 9.94816 10 10.4502 10 10.9736V30.7093C10 31.2328 10.2079 31.7348 10.578 32.1049C10.9482 32.475 11.4502 32.6829 11.9736 32.6829H20.5257C20.8747 32.6829 21.2094 32.5443 21.4561 32.2976C21.7028 32.0508 21.8415 31.7162 21.8415 31.3672C21.8415 31.0183 21.7028 30.6836 21.4561 30.4368C21.2094 30.1901 20.8747 30.0515 20.5257 30.0515H12.6314V11.6314H31.0515V22.1572C31.0515 22.5061 31.1901 22.8408 31.4368 23.0875C31.6836 23.3343 32.0183 23.4729 32.3672 23.4729C32.7162 23.4729 33.0508 23.3343 33.2976 23.0875C33.5443 22.8408 33.6829 22.5061 33.6829 22.1572V18.1521V10.9736ZM27.1043 22.1572H16.5786V19.5257H27.1043V22.1572ZM16.5786 27.42V24.7886H21.8415V27.42H16.5786ZM16.5786 14.2629V16.8943H27.1043V14.2629H16.5786ZM32.7527 26.4898L28.42 30.8225L26.7188 29.1213C26.4707 28.8816 26.1383 28.749 25.7933 28.752C25.4484 28.755 25.1184 28.8934 24.8744 29.1373C24.6305 29.3812 24.4921 29.7112 24.4891 30.0562C24.4861 30.4012 24.6187 30.7335 24.8584 30.9817L27.4898 33.6131C27.6117 33.7357 27.7567 33.833 27.9163 33.8994C28.076 33.9658 28.2472 34 28.42 34C28.5929 34 28.7641 33.9658 28.9238 33.8994C29.0834 33.833 29.2284 33.7357 29.3503 33.6131L34.6131 28.3503C34.8528 28.1021 34.9854 27.7698 34.9824 27.4248C34.9794 27.0798 34.8411 26.7498 34.5971 26.5059C34.3532 26.2619 34.0232 26.1235 33.6782 26.1205C33.3332 26.1175 33.0009 26.2502 32.7527 26.4898Z" fill="#185EA0" fill-opacity="0.5"/>
</svg>
