<svg width="42" height="42" viewBox="0 0 42 42" fill="none" xmlns="http://www.w3.org/2000/svg">
<circle cx="21" cy="21" r="20" fill="white" stroke="#185EA0"/>
<path d="M32.8226 13.3254L29.6745 10.1767L30.1989 9.65223C31.0683 8.78259 32.4782 8.78259 33.3476 9.65223C34.2168 10.5216 34.2168 11.9309 33.3476 12.8003L32.8226 13.3254Z" fill="#185EA0" fill-opacity="0.5"/>
<path d="M28.2292 11.619L31.3773 14.7678L22.819 23.3267L18.649 24.3488L19.6709 20.1779L28.2292 11.619Z" fill="#185EA0" fill-opacity="0.5"/>
<path d="M11.6322 12.9425V27.4195H16.2385C17.2582 27.4195 18.0648 28.2912 18.7731 29.0566C18.7845 29.0689 18.7959 29.0811 18.8072 29.0935C18.8447 29.1339 18.8821 29.1743 18.9188 29.2137C19.3994 29.7293 20.0845 30.0517 20.8449 30.0517C21.6053 30.0517 22.2903 29.7293 22.7708 29.2137C22.8151 29.1663 22.8597 29.1181 22.9047 29.0694L22.9163 29.0569C23.6245 28.2917 24.4318 27.4195 25.4512 27.4195H30.0575V23.4713C30.0575 22.7444 30.6468 22.1552 31.3736 22.1552C32.1005 22.1552 32.6897 22.7444 32.6897 23.4713V32.0259C32.6897 33.1161 31.8058 34 30.7156 34H10.9741C9.88385 34 9 33.1161 9 32.0259V12.2844C9 11.1942 9.88385 10.3103 10.9741 10.3103H19.5288C20.2556 10.3103 20.8449 10.8995 20.8449 11.6264C20.8449 12.3533 20.2556 12.9425 19.5288 12.9425H11.6322Z" fill="#185EA0" fill-opacity="0.5"/>
</svg>
