<svg width="42" height="42" viewBox="0 0 42 42" fill="none" xmlns="http://www.w3.org/2000/svg">
<circle cx="21" cy="21" r="20" fill="white" stroke="#185EA0" stroke-opacity="0.5"/>
<path fill-rule="evenodd" clip-rule="evenodd" d="M27.5 11.5H30.625C31.625 11.5 32.5 12.375 32.5 13.375V32.125C32.5 33.125 31.625 34 30.625 34H11.875C10.875 34 10 33.125 10 32.125V13.375C10 12.375 10.875 11.5 11.875 11.5H13.75V10.25C13.75 9.91848 13.8817 9.60054 14.1161 9.36612C14.3505 9.1317 14.6685 9 15 9C15.3315 9 15.6495 9.1317 15.8839 9.36612C16.1183 9.60054 16.25 9.91848 16.25 10.25V11.5H25V10.25C25 9.91848 25.1317 9.60054 25.3661 9.36612C25.6005 9.1317 25.9185 9 26.25 9C26.5815 9 26.8995 9.1317 27.1339 9.36612C27.3683 9.60054 27.5 9.91848 27.5 10.25V11.5ZM30 31.5H12.5V19H30V31.5ZM24.1163 21.8663L20 25.9825L18.3837 24.3663C18.2087 24.1921 17.986 24.0736 17.7438 24.0258C17.5016 23.9779 17.2506 24.0028 17.0224 24.0973C16.7943 24.1917 16.5992 24.3516 16.4618 24.5567C16.3243 24.7619 16.2506 25.0031 16.25 25.25C16.2501 25.5815 16.3818 25.8994 16.6163 26.1337L19.1163 28.6337C19.2321 28.7502 19.3698 28.8427 19.5214 28.9057C19.6731 28.9688 19.8357 29.0013 20 29.0013C20.1643 29.0013 20.3269 28.9688 20.4786 28.9057C20.6302 28.8427 20.7679 28.7502 20.8837 28.6337L25.8837 23.6337C26.1114 23.398 26.2374 23.0822 26.2346 22.7545C26.2317 22.4268 26.1003 22.1132 25.8685 21.8815C25.6368 21.6497 25.3232 21.5183 24.9955 21.5154C24.6678 21.5126 24.352 21.6386 24.1163 21.8663Z" fill="#185EA0" fill-opacity="0.5"/>
</svg>
