<svg width="42" height="42" viewBox="0 0 42 42" fill="none" xmlns="http://www.w3.org/2000/svg">
<circle cx="21" cy="21" r="20" fill="#185EA0" stroke="#185EA0"/>
<path d="M33.6845 10.9737C33.6845 10.4502 33.4765 9.94822 33.1064 9.57808C32.7362 9.20794 32.2342 9 31.7108 9H11.9737C11.4502 9 10.9482 9.20794 10.5781 9.57808C10.2079 9.94822 10 10.4502 10 10.9737V30.7105C10 31.234 10.2079 31.736 10.5781 32.1061C10.9482 32.4763 11.4502 32.6842 11.9737 32.6842H21.8422V30.0526H13.2856C12.7461 30.0526 12.4434 29.4474 12.7592 29.0132L17.4343 23.6829C17.6843 23.4066 18.1185 23.4066 18.3817 23.6697L20.5264 26.1053L24.5528 19.8145C24.6146 19.7235 24.6982 19.6495 24.796 19.5992C24.8938 19.5489 25.0027 19.5239 25.1126 19.5265C25.2225 19.5292 25.3301 19.5593 25.4254 19.6142C25.5206 19.6691 25.6007 19.747 25.6581 19.8408L26.6054 21.4868C27.5942 21.0599 28.6601 20.8404 29.7371 20.8421H33.6845V10.9737ZM18.5527 13.6053C20.0001 13.6053 21.1843 14.7895 21.1843 16.2368C21.1843 17.6842 20.0001 18.8684 18.5527 18.8684C17.1053 18.8684 15.9211 17.6842 15.9211 16.2368C15.9211 14.7895 17.1053 13.6053 18.5527 13.6053ZM34.6148 27.8066C34.368 27.5598 34.0334 27.4211 33.6845 27.4211H31.0529V24.7895C31.0529 24.4405 30.9142 24.1058 30.6675 23.8591C30.4207 23.6123 30.086 23.4737 29.7371 23.4737C29.3881 23.4737 29.0534 23.6123 28.8067 23.8591C28.5599 24.1058 28.4213 24.4405 28.4213 24.7895V27.4211H25.7897C25.4407 27.4211 25.106 27.5597 24.8592 27.8064C24.6125 28.0532 24.4738 28.3879 24.4738 28.7368C24.4738 29.0858 24.6125 29.4205 24.8592 29.6672C25.106 29.914 25.4407 30.0526 25.7897 30.0526H28.4213V32.6842C28.4213 33.0332 28.5599 33.3679 28.8067 33.6146C29.0534 33.8614 29.3881 34 29.7371 34C30.086 34 30.4207 33.8614 30.6675 33.6146C30.9142 33.3679 31.0529 33.0332 31.0529 32.6842V30.0526H33.6845C33.9447 30.0526 34.199 29.9754 34.4153 29.8308C34.6317 29.6862 34.8003 29.4807 34.8999 29.2403C34.9994 28.9999 35.0255 28.7354 34.9747 28.4802C34.924 28.225 34.7987 27.9906 34.6148 27.8066Z" fill="white"/>
</svg>
