<svg width="14" height="14" viewBox="0 0 14 14" fill="none" xmlns="http://www.w3.org/2000/svg">
<path d="M11.9598 2.037C10.6442 0.721 8.89246 0 7.02814 0C3.18693 0 0.0562815 3.115 0.0562815 6.937C0.0562815 8.162 0.3799 9.352 0.984925 10.402L0 14L3.69347 13.034C4.71357 13.587 5.8603 13.881 7.02814 13.881C10.8693 13.881 14 10.766 14 6.944C14 5.089 13.2754 3.346 11.9598 2.037ZM7.02814 12.705C5.98693 12.705 4.96683 12.425 4.07337 11.9L3.86231 11.774L1.66734 12.348L2.25126 10.22L2.11055 10.003C1.53367 9.086 1.22412 8.022 1.22412 6.937C1.22412 3.759 3.82714 1.169 7.0211 1.169C8.56884 1.169 10.0251 1.771 11.1156 2.863C12.2131 3.955 12.8111 5.404 12.8111 6.944C12.8251 10.122 10.2221 12.705 7.02814 12.705ZM10.208 8.393C10.0322 8.309 9.17387 7.889 9.01909 7.826C8.85729 7.77 8.74472 7.742 8.62512 7.91C8.50553 8.085 8.17487 8.477 8.07638 8.589C7.97789 8.708 7.87236 8.722 7.69648 8.631C7.5206 8.547 6.95779 8.358 6.29648 7.77C5.77588 7.308 5.43116 6.741 5.32563 6.566C5.22714 6.391 5.31156 6.3 5.40301 6.209C5.4804 6.132 5.57889 6.006 5.66332 5.908C5.74774 5.81 5.78291 5.733 5.8392 5.621C5.89548 5.502 5.86734 5.404 5.82513 5.32C5.78291 5.236 5.43116 4.382 5.29045 4.032C5.14975 3.696 5.00201 3.738 4.89648 3.731C4.79095 3.731 4.67839 3.731 4.55879 3.731C4.4392 3.731 4.25628 3.773 4.09447 3.948C3.9397 4.123 3.48945 4.543 3.48945 5.397C3.48945 6.251 4.11558 7.077 4.2 7.189C4.28442 7.308 5.43116 9.058 7.17588 9.807C7.59095 9.989 7.91457 10.094 8.16784 10.171C8.58291 10.304 8.96281 10.283 9.26533 10.241C9.60301 10.192 10.2995 9.821 10.4402 9.415C10.5879 9.009 10.5879 8.666 10.5387 8.589C10.4894 8.512 10.3839 8.477 10.208 8.393Z" fill="black"/>
</svg>
